# xmcd
#
# Track frame offsets:
#	150
#	22887
#	51703
#	65955
#	95302
#	108686
#	132308
#	158227
#	190995
#	220879
#	245681
#	271680
#	289162
#
# Disc length: 4192 seconds
#
# Revision: 0
# Processed by: cddbd v1.5.2PL0 Copyright (c) Steve Scherf et al.
# Submitted via: EasyCDDAExtractor 16.0.6.1
#
DISCID=cb105e0d
DTITLE=Vargas Blues Band - R-678 Texas Tango
DYEAR=1900
DGENRE=Blues
TTITLE0=Rose on the Water
TTITLE1=Blues Pilgrimage
TTITLE2=Texas Tango
TTITLE3=Love Ain't Got Nowhere to Go
TTITLE4=Ride Baby Ride
TTITLE5=Black Cat Boogie
TTITLE6=1969
TTITLE7=Ridin' High
TTITLE8=Thinking of You
TTITLE9=Buenos Aires Blues
TTITLE10=Big Boss Man
TTITLE11=253
TTITLE12=Blood Shot
EXTD=
EXTT0=
EXTT1=
EXTT2=
EXTT3=
EXTT4=
EXTT5=
EXTT6=
EXTT7=
EXTT8=
EXTT9=
EXTT10=
EXTT11=
EXTT12=
PLAYORDER=
